<svg xmlns="http://www.w3.org/2000/svg" width="216" height="82" fill="none" viewBox="0 0 216 82"><rect width="24" height="24" fill="var(--docs-divider-color-2)" rx="4"/><rect width="22" height="22" x="1" y="33" stroke="var(--docs-divider-color-2)" stroke-width="2" opacity=".5" rx="3"/><path fill="var(--docs-background-color)" d="m7.5364 11.73c-.35148-.3515-.92132-.3515-1.2728 0-.35147.3514-.35147.9213 0 1.2727l3.26683 3.2669c.35147.3514.92127.3514 1.27277 0l7.7332-7.7332c.3515-.35148.3515-.92132 0-1.2728-.3515-.35147-.9213-.35147-1.2728 0l-7.0968 7.0968z"/><rect width="66" height="28" x="40" fill="var(--docs-blue-500)" rx="4"/><g fill="var(--docs-divider-color-2)"><rect width="66" height="28" x="114" opacity=".5" rx="4"/><rect width="28" height="28" x="188" opacity=".3" rx="4"/><rect width="39" height="8" x="40" y="46" rx="2"/><rect width="20" height="8" x="86" y="46" rx="2"/><rect width="20" height="8" x="112" y="46" rx="2"/><rect width="39" height="6" x="40" y="62" opacity=".5" rx="2"/><rect width="20" height="6" x="86" y="62" opacity=".5" rx="2"/><rect width="20" height="6" x="112" y="62" opacity=".5" rx="2"/><rect width="39" height="6" x="40" y="76" opacity=".5" rx="2"/><rect width="20" height="6" x="86" y="76" opacity=".5" rx="2"/><rect width="20" height="6" x="112" y="76" opacity=".5" rx="2"/><rect width="36" height="4" x="172" y="46" rx="2"/><rect width="20" height="4" x="172" y="54" opacity=".5" rx="2"/><circle cx="156" cy="52" r="8"/><path d="m207.219 11.2728c.439-.3937 1.114-.3569 1.508.0821.394.4391.357 1.1142-.082 1.5079 0 0-5.599 5.1394-6.005 5.5032s-.879.3638-1.285 0l-6-5.5032c-.439-.3937-.476-1.0688-.082-1.5079.394-.439 1.069-.4758 1.508-.0821l5.219 4.864z"/></g></svg>